<svg width="208" height="208" xmlns="http://www.w3.org/2000/svg" xmlns:xlink="http://www.w3.org/1999/xlink" overflow="hidden"><defs><clipPath id="clip0"><rect x="592" y="312" width="208" height="208"/></clipPath></defs><g clip-path="url(#clip0)" transform="translate(-592 -312)"><path d="M774.477 338 773.523 338C771.342 338.059 769.618 339.87 769.667 342.052L769.667 355.615C769.618 357.797 771.342 359.608 773.523 359.667L774.477 359.667C776.658 359.608 778.382 357.797 778.333 355.615L778.333 342.052C778.382 339.87 776.658 338.059 774.477 338Z"/><path d="M618.477 338 617.523 338C615.342 338.059 613.618 339.87 613.667 342.052L613.667 355.615C613.618 357.797 615.342 359.608 617.523 359.667L618.477 359.667C620.658 359.608 622.382 357.797 622.333 355.615L622.333 342.052C622.382 339.87 620.658 338.059 618.477 338Z"/><path d="M780.5 344.5 780.5 353.167C782.893 353.167 784.833 351.227 784.833 348.833 784.833 346.44 782.893 344.5 780.5 344.5Z"/><path d="M611.5 353.167 611.5 344.5C609.107 344.5 607.167 346.44 607.167 348.833 607.167 351.227 609.107 353.167 611.5 353.167Z"/><path d="M763.643 331.5 762.69 331.5C760.372 331.751 758.668 333.79 758.833 336.115L758.833 344.5 633.167 344.5 633.167 336.115C633.332 333.79 631.628 331.751 629.31 331.5L628.357 331.5C626.039 331.751 624.335 333.79 624.5 336.115L624.5 361.552C624.335 363.877 626.039 365.916 628.357 366.167L629.31 366.167C631.628 365.916 633.332 363.877 633.167 361.552L633.167 353.167 644 353.167 644 385.667C644.011 388.752 645.661 391.599 648.333 393.142L678.667 411.017 678.667 432.185 647.965 452.053C645.493 453.65 644 456.391 644 459.333L644 500.5 661.333 500.5 661.333 464.057 678.667 452.833 713.333 452.833 730.667 464.057 730.667 500.5 748 500.5 748 459.333C748 456.391 746.507 453.65 744.035 452.053L713.333 432.185 713.333 411.017 743.667 393.142C746.339 391.599 747.989 388.752 748 385.667L748 353.167 758.833 353.167 758.833 361.552C758.668 363.877 760.372 365.916 762.69 366.167L763.643 366.167C765.961 365.916 767.665 363.877 767.5 361.552L767.5 336.115C767.665 333.79 765.961 331.751 763.643 331.5ZM730.667 380.705 703.822 396.5 688.178 396.5 661.333 380.705 661.333 353.167 730.667 353.167Z"/><path d="M713.333 372.667C713.333 382.24 705.573 390 696 390 686.427 390 678.667 382.24 678.667 372.667 678.667 363.094 686.427 355.333 696 355.333 705.573 355.333 713.333 363.094 713.333 372.667Z"/></g></svg>