<svg width="185" height="185" xmlns="http://www.w3.org/2000/svg" xmlns:xlink="http://www.w3.org/1999/xlink" overflow="hidden"><defs><clipPath id="clip0"><rect x="211" y="100" width="185" height="185"/></clipPath></defs><g clip-path="url(#clip0)" transform="translate(-211 -100)"><path d="M318.917 121.198C318.917 129.712 312.014 136.615 303.5 136.615 294.986 136.615 288.083 129.712 288.083 121.198 288.083 112.684 294.986 105.781 303.5 105.781 312.014 105.781 318.917 112.684 318.917 121.198Z"/><path d="M345.51 200.594 334.719 154.729C334.333 153.188 333.562 151.646 332.406 150.49 327.781 146.635 322.385 143.938 316.219 142.01 311.979 141.24 307.74 140.469 303.5 140.469 299.26 140.469 295.021 141.24 290.781 142.396 284.615 143.938 279.219 147.021 274.594 150.875 273.438 152.031 272.667 153.573 272.281 155.115L261.49 200.979C261.49 201.365 261.104 202.135 261.104 202.906 261.104 207.146 264.573 210.615 268.812 210.615 272.281 210.615 275.365 207.917 276.135 204.833L284.229 171.302 284.229 279.219 299.646 279.219 299.646 209.844 307.354 209.844 307.354 279.219 322.771 279.219 322.771 170.917 330.865 204.448C331.635 207.531 334.719 210.229 338.188 210.229 342.427 210.229 345.896 206.76 345.896 202.521 345.896 201.75 345.51 200.979 345.51 200.594Z"/></g></svg>